<svg width="76" height="13" viewBox="0 0 76 13" fill="none" xmlns="http://www.w3.org/2000/svg">
<g clip-path="url(#clip0_1_316)">
<path d="M69.6666 12.1667C72.8882 12.1667 75.4999 9.55499 75.4999 6.33333C75.4999 3.11167 72.8882 0.5 69.6666 0.5C66.4449 0.5 63.8333 3.11167 63.8333 6.33333C63.8333 9.55499 66.4449 12.1667 69.6666 12.1667Z" stroke="#FFCA42"/>
<path d="M69.6667 12.6667C68.835 12.6667 68.0114 12.5029 67.243 12.1846C66.4746 11.8663 65.7764 11.3998 65.1883 10.8117C64.6002 10.2236 64.1337 9.52539 63.8154 8.75699C63.4971 7.9886 63.3333 7.16504 63.3333 6.33333C63.3333 5.50163 63.4971 4.67807 63.8154 3.90967C64.1337 3.14128 64.6002 2.44309 65.1883 1.85499C65.7764 1.26689 66.4746 0.800375 67.243 0.482096C68.0114 0.163816 68.835 -1.09065e-07 69.6667 0V6.33333V12.6667Z" fill="#FFCA42"/>
<path d="M53.8333 12.6667C57.3311 12.6667 60.1667 9.83113 60.1667 6.33333C60.1667 2.83553 57.3311 0 53.8333 0C50.3355 0 47.5 2.83553 47.5 6.33333C47.5 9.83113 50.3355 12.6667 53.8333 12.6667Z" fill="#FFCA42"/>
<path d="M38.0001 12.6667C41.4979 12.6667 44.3334 9.83113 44.3334 6.33333C44.3334 2.83553 41.4979 0 38.0001 0C34.5023 0 31.6667 2.83553 31.6667 6.33333C31.6667 9.83113 34.5023 12.6667 38.0001 12.6667Z" fill="#FFCA42"/>
<path d="M22.1666 12.6667C25.6644 12.6667 28.4999 9.83113 28.4999 6.33333C28.4999 2.83553 25.6644 0 22.1666 0C18.6688 0 15.8333 2.83553 15.8333 6.33333C15.8333 9.83113 18.6688 12.6667 22.1666 12.6667Z" fill="#FFCA42"/>
<path d="M6.33333 12.6667C9.83113 12.6667 12.6667 9.83113 12.6667 6.33333C12.6667 2.83553 9.83113 0 6.33333 0C2.83553 0 0 2.83553 0 6.33333C0 9.83113 2.83553 12.6667 6.33333 12.6667Z" fill="#FFCA42"/>
</g>
<defs>
<clipPath id="clip0_1_316">
<rect width="76" height="13" fill="white"/>
</clipPath>
</defs>
</svg>
