<svg width="120" height="20" viewBox="0 0 120 20" fill="none" xmlns="http://www.w3.org/2000/svg">
<g clip-path="url(#clip0_1_299)">
<path d="M110 19.5C115.247 19.5 119.5 15.2467 119.5 10C119.5 4.75329 115.247 0.5 110 0.5C104.753 0.5 100.5 4.75329 100.5 10C100.5 15.2467 104.753 19.5 110 19.5Z" stroke="#FFCA42"/>
<path d="M110 20C108.687 20 107.386 19.7413 106.173 19.2388C104.96 18.7362 103.858 17.9997 102.929 17.0711C102 16.1425 101.264 15.0401 100.761 13.8268C100.259 12.6136 100 11.3132 100 10C100 8.68678 100.259 7.38642 100.761 6.17316C101.264 4.95991 102 3.85752 102.929 2.92893C103.858 2.00035 104.96 1.26375 106.173 0.761204C107.386 0.258657 108.687 -1.72208e-07 110 0V10V20Z" fill="#FFCA42"/>
<path d="M85 20C90.5228 20 95 15.5228 95 10C95 4.47715 90.5228 0 85 0C79.4772 0 75 4.47715 75 10C75 15.5228 79.4772 20 85 20Z" fill="#FFCA42"/>
<path d="M60 20C65.5228 20 70 15.5228 70 10C70 4.47715 65.5228 0 60 0C54.4772 0 50 4.47715 50 10C50 15.5228 54.4772 20 60 20Z" fill="#FFCA42"/>
<path d="M35 20C40.5228 20 45 15.5228 45 10C45 4.47715 40.5228 0 35 0C29.4772 0 25 4.47715 25 10C25 15.5228 29.4772 20 35 20Z" fill="#FFCA42"/>
<path d="M10 20C15.5228 20 20 15.5228 20 10C20 4.47715 15.5228 0 10 0C4.47715 0 0 4.47715 0 10C0 15.5228 4.47715 20 10 20Z" fill="#FFCA42"/>
</g>
<defs>
<clipPath id="clip0_1_299">
<rect width="120" height="20" fill="white"/>
</clipPath>
</defs>
</svg>
